# Blender 4.4.3
# www.blender.org
mtllib Vessel_1.mtl
o Vessel_1
v -0.000000 -0.277565 0.000000
v 0.095281 0.221881 -0.230030
v -0.000000 0.221881 -0.248983
v 0.176057 0.221881 -0.176058
v 0.230030 0.221881 -0.095282
v 0.248983 0.221881 -0.000000
v 0.230030 0.221881 0.095282
v 0.176057 0.221881 0.176058
v 0.095281 0.221881 0.230030
v -0.000000 0.221881 0.248983
v -0.095282 0.221881 0.230030
v -0.176058 0.221881 0.176058
v -0.230031 0.221881 0.095282
v -0.248983 0.221881 0.000000
v -0.230031 0.221881 -0.095282
v -0.176058 0.221881 -0.176058
v -0.095282 0.221881 -0.230030
v -0.000000 -0.230379 -0.204343
v 0.078198 -0.230379 -0.188788
v 0.144492 -0.230379 -0.144492
v 0.188788 -0.230379 -0.078199
v 0.204342 -0.230379 0.000000
v 0.188788 -0.230379 0.078199
v 0.144492 -0.230379 0.144492
v 0.078198 -0.230379 0.188788
v -0.000000 -0.230379 0.204343
v -0.078199 -0.230379 0.188788
v -0.144492 -0.230379 0.144492
v -0.188788 -0.230379 0.078199
v -0.204343 -0.230379 0.000000
v -0.188788 -0.230379 -0.078199
v -0.144492 -0.230379 -0.144492
v -0.078199 -0.230379 -0.188788
v -0.000000 0.219110 -0.250000
v 0.095671 0.219110 -0.230970
v 0.176776 0.219110 -0.176777
v 0.230970 0.219110 -0.095671
v 0.250000 0.219110 0.000000
v 0.230970 0.219110 0.095671
v 0.176776 0.219110 0.176777
v 0.095671 0.219110 0.230970
v -0.000000 0.219110 0.250000
v -0.095671 0.219110 0.230970
v -0.176777 0.219110 0.176777
v -0.230970 0.219110 0.095671
v -0.250000 0.219110 0.000000
v -0.230970 0.219110 -0.095671
v -0.176777 0.219110 -0.176777
v -0.095671 0.219110 -0.230970
v -0.000000 0.222435 -0.247010
v 0.094527 0.222435 -0.228208
v 0.174663 0.222435 -0.174663
v 0.228208 0.222435 -0.094527
v 0.247010 0.222435 0.000000
v 0.228208 0.222435 0.094527
v 0.174662 0.222435 0.174663
v 0.094527 0.222435 0.228208
v -0.000000 0.222435 0.247010
v -0.094527 0.222435 0.228208
v -0.174663 0.222435 0.174663
v -0.228208 0.222435 0.094527
v -0.247011 0.222435 0.000000
v -0.228208 0.222435 -0.094527
v -0.174663 0.222435 -0.174663
v -0.094527 0.222435 -0.228208
v -0.000000 0.222435 -0.207293
v 0.079327 0.222435 -0.191514
v 0.146578 0.222435 -0.146578
v 0.191513 0.222435 -0.079327
v 0.207293 0.222435 0.000000
v 0.191513 0.222435 0.079327
v 0.146578 0.222435 0.146578
v 0.079327 0.222435 0.191514
v -0.000000 0.222435 0.207293
v -0.079328 0.222435 0.191514
v -0.146578 0.222435 0.146578
v -0.191514 0.222435 0.079327
v -0.207293 0.222435 0.000000
v -0.191514 0.222435 -0.079327
v -0.146578 0.222435 -0.146578
v -0.079328 0.222435 -0.191514
v 0.204636 0.217048 0.000000
v -0.204637 0.217048 0.000000
v 0.189059 0.217048 0.078311
v -0.189059 0.217048 -0.078311
v 0.144699 0.217048 0.144700
v -0.144700 0.217048 -0.144700
v 0.078311 0.217048 0.189059
v -0.078311 0.217048 -0.189059
v -0.000000 0.217048 0.204636
v 0.078311 0.217048 -0.189059
v -0.078311 0.217048 0.189059
v 0.144699 0.217048 -0.144700
v -0.144700 0.217048 0.144700
v 0.189059 0.217048 -0.078311
v -0.189059 0.217048 0.078311
v -0.000000 0.217048 -0.204636
v -0.000000 -0.277565 -0.244574
v 0.093594 -0.277565 -0.225957
v 0.172939 -0.277565 -0.172940
v 0.225956 -0.277565 -0.093594
v 0.244573 -0.277565 0.000000
v 0.225956 -0.277565 0.093594
v 0.172939 -0.277565 0.172940
v 0.093594 -0.277565 0.225957
v -0.000000 -0.277565 0.244574
v -0.093595 -0.277565 0.225957
v -0.172940 -0.277565 0.172940
v -0.225957 -0.277565 0.093594
v -0.244574 -0.277565 0.000000
v -0.225957 -0.277565 -0.093594
v -0.172940 -0.277565 -0.172940
v -0.093595 -0.277565 -0.225957
v 0.048571 0.221881 -0.244183
v 0.095671 -0.271105 -0.230970
v 0.138318 0.221881 -0.207008
v 0.176776 -0.271105 -0.176777
v 0.207008 0.221881 -0.138319
v 0.230970 -0.271105 -0.095671
v 0.244183 0.221881 -0.048571
v 0.250000 -0.271105 0.000000
v 0.244183 0.221881 0.048571
v 0.230970 -0.271105 0.095671
v 0.207008 0.221881 0.138319
v 0.176776 -0.271105 0.176777
v 0.138318 0.221881 0.207008
v 0.095671 -0.271105 0.230970
v 0.048571 0.221881 0.244183
v -0.000000 -0.271105 0.250000
v -0.048571 0.221881 0.244183
v -0.095671 -0.271105 0.230970
v -0.138319 0.221881 0.207008
v -0.176777 -0.271105 0.176777
v -0.207009 0.221881 0.138319
v -0.230970 -0.271105 0.095671
v -0.244183 0.221881 0.048571
v -0.250000 -0.271105 0.000000
v -0.244183 0.221881 -0.048571
v -0.230970 -0.271105 -0.095671
v -0.207009 0.221881 -0.138319
v -0.176777 -0.271105 -0.176777
v -0.138319 0.221881 -0.207008
v -0.095671 -0.271105 -0.230970
v -0.048571 0.221881 -0.244183
v 0.039863 -0.230379 -0.200403
v 0.113519 -0.230379 -0.169894
v 0.169894 -0.230379 -0.113519
v 0.200403 -0.230379 -0.039863
v 0.200403 -0.230379 0.039863
v 0.169894 -0.230379 0.113519
v 0.113519 -0.230379 0.169894
v 0.039863 -0.230379 0.200403
v -0.039863 -0.230379 0.200403
v -0.113520 -0.230379 0.169894
v -0.169894 -0.230379 0.113519
v -0.200404 -0.230379 0.039863
v -0.200404 -0.230379 -0.039863
v -0.169894 -0.230379 -0.113519
v -0.113520 -0.230379 -0.169894
v -0.039863 -0.230379 -0.200403
v 0.188788 -0.194486 -0.078199
v -0.188788 -0.194486 0.078199
v -0.000000 -0.194486 -0.204343
v -0.048770 0.219110 -0.245181
v -0.138884 0.219110 -0.207854
v -0.207854 0.219110 -0.138884
v -0.245181 0.219110 -0.048769
v -0.245181 0.219110 0.048769
v -0.207854 0.219110 0.138884
v -0.138884 0.219110 0.207854
v -0.048770 0.219110 0.245181
v 0.048769 0.219110 0.245181
v 0.138883 0.219110 0.207854
v 0.207854 0.219110 0.138884
v 0.245180 0.219110 0.048769
v 0.245180 0.219110 -0.048769
v 0.207854 0.219110 -0.138884
v 0.138883 0.219110 -0.207854
v 0.048769 0.219110 -0.245181
v -0.000000 -0.271105 -0.250000
v 0.047711 -0.277565 -0.239859
v 0.135869 -0.277565 -0.203342
v 0.203342 -0.277565 -0.135869
v 0.239859 -0.277565 -0.047711
v 0.239859 -0.277565 0.047711
v 0.203342 -0.277565 0.135869
v 0.135869 -0.277565 0.203342
v 0.047711 -0.277565 0.239859
v -0.047711 -0.277565 0.239859
v -0.135869 -0.277565 0.203342
v -0.203343 -0.277565 0.135869
v -0.239859 -0.277565 0.047711
v -0.239859 -0.277565 -0.047711
v -0.203343 -0.277565 -0.135869
v -0.135869 -0.277565 -0.203342
v -0.047711 -0.277565 -0.239859
v 0.204342 -0.194486 0.000000
v -0.204343 -0.194486 0.000000
v 0.188788 -0.194486 0.078199
v -0.188788 -0.194486 -0.078199
v 0.144492 -0.194486 0.144492
v -0.144492 -0.194486 -0.144492
v 0.078198 -0.194486 0.188788
v -0.078199 -0.194486 -0.188788
v -0.000000 -0.194486 0.204343
v 0.078198 -0.194486 -0.188788
v -0.078199 -0.194486 0.188788
v 0.144492 -0.194486 -0.144492
v -0.144492 -0.194486 0.144492
v -0.048187 0.222435 -0.242249
v -0.137223 0.222435 -0.205368
v -0.205369 0.222435 -0.137223
v -0.242249 0.222435 -0.048186
v -0.242249 0.222435 0.048186
v -0.205369 0.222435 0.137223
v -0.137223 0.222435 0.205368
v -0.048187 0.222435 0.242249
v 0.048186 0.222435 0.242249
v 0.137223 0.222435 0.205368
v 0.205368 0.222435 0.137223
v 0.242248 0.222435 0.048186
v 0.242248 0.222435 -0.048186
v 0.205368 0.222435 -0.137223
v 0.137223 0.222435 -0.205368
v 0.048186 0.222435 -0.242249
v 0.040438 0.222435 -0.203297
v 0.115158 0.222435 -0.172347
v 0.172346 0.222435 -0.115158
v 0.203296 0.222435 -0.040438
v 0.203296 0.222435 0.040438
v 0.172346 0.222435 0.115158
v 0.115158 0.222435 0.172347
v 0.040438 0.222435 0.203297
v -0.040438 0.222435 0.203297
v -0.115159 0.222435 0.172347
v -0.172347 0.222435 0.115158
v -0.203297 0.222435 0.040438
v -0.203297 0.222435 -0.040438
v -0.172347 0.222435 -0.115158
v -0.115159 0.222435 -0.172347
v -0.040438 0.222435 -0.203297
v 0.200691 0.217048 -0.039920
v -0.200692 0.217048 0.039920
v 0.200691 0.217048 0.039920
v -0.200692 0.217048 -0.039920
v 0.170138 0.217048 0.113683
v -0.170138 0.217048 -0.113683
v 0.113682 0.217048 0.170138
v -0.113683 0.217048 -0.170138
v 0.039920 0.217048 0.200691
v 0.039920 0.217048 -0.200691
v -0.039920 0.217048 -0.200691
v -0.039920 0.217048 0.200691
v 0.113682 0.217048 -0.170138
v -0.113683 0.217048 0.170138
v 0.170138 0.217048 -0.113683
v -0.170138 0.217048 0.113683
v 0.200403 -0.194486 -0.039863
v -0.000000 -0.230379 0.000000
v -0.200404 -0.194486 0.039863
v 0.200403 -0.194486 0.039863
v -0.200404 -0.194486 -0.039863
v 0.169894 -0.194486 0.113519
v -0.169894 -0.194486 -0.113519
v 0.113519 -0.194486 0.169894
v -0.113520 -0.194486 -0.169894
v 0.039863 -0.194486 0.200403
v 0.039863 -0.194486 -0.200403
v -0.039863 -0.194486 -0.200403
v -0.039863 -0.194486 0.200403
v 0.113519 -0.194486 -0.169894
v -0.113520 -0.194486 0.169894
v 0.169894 -0.194486 -0.113519
v -0.169894 -0.194486 0.113519
v 0.048769 -0.271105 -0.245181
v 0.138883 -0.271105 -0.207854
v 0.207854 -0.271105 -0.138884
v 0.245180 -0.271105 -0.048769
v 0.245180 -0.271105 0.048769
v 0.207854 -0.271105 0.138884
v 0.138883 -0.271105 0.207854
v 0.048769 -0.271105 0.245181
v -0.048770 -0.271105 0.245181
v -0.138884 -0.271105 0.207854
v -0.207854 -0.271105 0.138884
v -0.245181 -0.271105 0.048769
v -0.245181 -0.271105 -0.048769
v -0.207854 -0.271105 -0.138884
v -0.138884 -0.271105 -0.207854
v -0.048770 -0.271105 -0.245181
v -0.000000 0.221409 -0.205882
v -0.000000 0.219379 -0.204765
v 0.078360 0.219379 -0.189178
v 0.078787 0.221409 -0.190210
v 0.144790 0.219379 -0.144790
v 0.145581 0.221409 -0.145581
v 0.189178 0.219379 -0.078360
v 0.190210 0.221409 -0.078788
v 0.204764 0.219379 0.000000
v 0.205882 0.221409 0.000000
v 0.189178 0.219379 0.078360
v 0.190210 0.221409 0.078788
v 0.144790 0.219379 0.144790
v 0.145581 0.221409 0.145581
v 0.078360 0.219379 0.189178
v 0.078787 0.221409 0.190210
v -0.000000 0.219379 0.204765
v -0.000000 0.221409 0.205882
v -0.078360 0.219379 0.189178
v -0.078788 0.221409 0.190210
v -0.144791 0.219379 0.144790
v -0.145581 0.221409 0.145581
v -0.189178 0.219379 0.078360
v -0.190211 0.221409 0.078788
v -0.204765 0.219379 0.000000
v -0.205882 0.221409 0.000000
v -0.189178 0.219379 -0.078360
v -0.190211 0.221409 -0.078788
v -0.144791 0.219379 -0.144790
v -0.145581 0.221409 -0.145581
v -0.078360 0.219379 -0.189178
v -0.078788 0.221409 -0.190210
v 0.040163 0.221409 -0.201913
v 0.039945 0.219379 -0.200817
v 0.114374 0.221409 -0.171174
v 0.113754 0.219379 -0.170245
v 0.171174 0.221409 -0.114375
v 0.170244 0.219379 -0.113754
v 0.201913 0.221409 -0.040163
v 0.200817 0.219379 -0.039945
v 0.201913 0.221409 0.040163
v 0.200817 0.219379 0.039945
v 0.171174 0.221409 0.114375
v 0.170244 0.219379 0.113754
v 0.114374 0.221409 0.171174
v 0.113754 0.219379 0.170245
v 0.040163 0.221409 0.201913
v 0.039945 0.219379 0.200817
v -0.040163 0.221409 0.201913
v -0.039945 0.219379 0.200817
v -0.114375 0.221409 0.171174
v -0.113754 0.219379 0.170245
v -0.171174 0.221409 0.114375
v -0.170245 0.219379 0.113754
v -0.201913 0.221409 0.040163
v -0.200817 0.219379 0.039945
v -0.201913 0.221409 -0.040163
v -0.200817 0.219379 -0.039945
v -0.171174 0.221409 -0.114375
v -0.170245 0.219379 -0.113754
v -0.114375 0.221409 -0.171174
v -0.113754 0.219379 -0.170245
v -0.040163 0.221409 -0.201913
v -0.039945 0.219379 -0.200817
v -0.000000 -0.277565 -0.249133
v -0.000000 -0.276724 -0.250000
v 0.095671 -0.276724 -0.230970
v 0.095339 -0.277565 -0.230169
v 0.176776 -0.276724 -0.176777
v 0.176163 -0.277565 -0.176164
v 0.230970 -0.276724 -0.095671
v 0.230169 -0.277565 -0.095339
v 0.250000 -0.276724 0.000000
v 0.249133 -0.277565 0.000000
v 0.230970 -0.276724 0.095671
v 0.230169 -0.277565 0.095339
v 0.176776 -0.276724 0.176777
v 0.176163 -0.277565 0.176164
v 0.095671 -0.276724 0.230970
v 0.095339 -0.277565 0.230169
v -0.000000 -0.276724 0.250000
v -0.000000 -0.277565 0.249133
v -0.095671 -0.276724 0.230970
v -0.095339 -0.277565 0.230169
v -0.176777 -0.276724 0.176777
v -0.176164 -0.277565 0.176164
v -0.230970 -0.276724 0.095671
v -0.230169 -0.277565 0.095339
v -0.250000 -0.276724 0.000000
v -0.249133 -0.277565 0.000000
v -0.230970 -0.276724 -0.095671
v -0.230169 -0.277565 -0.095339
v -0.176777 -0.276724 -0.176777
v -0.176164 -0.277565 -0.176164
v -0.095671 -0.276724 -0.230970
v -0.095339 -0.277565 -0.230169
v 0.048769 -0.276724 -0.245181
v 0.048600 -0.277565 -0.244330
v 0.138883 -0.276724 -0.207854
v 0.138402 -0.277565 -0.207133
v 0.207854 -0.276724 -0.138884
v 0.207133 -0.277565 -0.138402
v 0.245180 -0.276724 -0.048769
v 0.244330 -0.277565 -0.048600
v 0.245180 -0.276724 0.048769
v 0.244330 -0.277565 0.048600
v 0.207854 -0.276724 0.138884
v 0.207133 -0.277565 0.138402
v 0.138883 -0.276724 0.207854
v 0.138402 -0.277565 0.207133
v 0.048769 -0.276724 0.245181
v 0.048600 -0.277565 0.244330
v -0.048770 -0.276724 0.245181
v -0.048601 -0.277565 0.244330
v -0.138884 -0.276724 0.207854
v -0.138402 -0.277565 0.207133
v -0.207854 -0.276724 0.138884
v -0.207133 -0.277565 0.138402
v -0.245181 -0.276724 0.048769
v -0.244331 -0.277565 0.048600
v -0.245181 -0.276724 -0.048769
v -0.244331 -0.277565 -0.048600
v -0.207854 -0.276724 -0.138884
v -0.207133 -0.277565 -0.138402
v -0.138884 -0.276724 -0.207854
v -0.138402 -0.277565 -0.207133
v -0.048770 -0.276724 -0.245181
v -0.048601 -0.277565 -0.244330
vn -0.0000 -1.0000 -0.0000
vn 0.2655 0.7201 -0.6410
vn -0.0000 0.7201 -0.6938
vn 0.4906 0.7201 -0.4906
vn 0.6410 0.7201 -0.2655
vn 0.6938 0.7201 -0.0000
vn 0.6410 0.7201 0.2655
vn 0.4906 0.7201 0.4906
vn 0.2655 0.7201 0.6410
vn -0.0000 0.7201 0.6938
vn -0.2655 0.7201 0.6410
vn -0.4906 0.7201 0.4906
vn -0.6410 0.7201 0.2655
vn -0.6938 0.7201 -0.0000
vn -0.6410 0.7201 -0.2655
vn -0.4906 0.7201 -0.4906
vn -0.2655 0.7201 -0.6410
vn -0.0000 0.6856 0.7279
vn -0.2786 0.6856 0.6725
vn -0.5147 0.6856 0.5147
vn -0.6725 0.6856 0.2786
vn -0.7279 0.6856 -0.0000
vn -0.6725 0.6856 -0.2786
vn -0.5147 0.6856 -0.5147
vn -0.2786 0.6856 -0.6725
vn -0.0000 0.6856 -0.7279
vn 0.2786 0.6856 -0.6725
vn 0.5147 0.6856 -0.5147
vn 0.6725 0.6856 -0.2786
vn 0.7279 0.6856 -0.0000
vn 0.6725 0.6856 0.2786
vn 0.5147 0.6856 0.5147
vn 0.2786 0.6856 0.6725
vn -0.0000 0.1731 -0.9849
vn 0.3769 0.1731 -0.9099
vn 0.6964 0.1731 -0.6964
vn 0.9099 0.1731 -0.3769
vn 0.9849 0.1731 -0.0000
vn 0.9099 0.1731 0.3769
vn 0.6964 0.1731 0.6964
vn 0.3769 0.1731 0.9099
vn -0.0000 0.1731 0.9849
vn -0.3769 0.1731 0.9099
vn -0.6964 0.1731 0.6964
vn -0.9099 0.1731 0.3769
vn -0.9849 0.1731 -0.0000
vn -0.9099 0.1731 -0.3769
vn -0.6964 0.1731 -0.6964
vn -0.3769 0.1731 -0.9099
vn -0.0000 0.9894 -0.1449
vn 0.0554 0.9894 -0.1339
vn 0.1025 0.9894 -0.1025
vn 0.1339 0.9894 -0.0554
vn 0.1449 0.9894 -0.0000
vn 0.1339 0.9894 0.0554
vn 0.1025 0.9894 0.1025
vn 0.0554 0.9894 0.1339
vn -0.0000 0.9894 0.1449
vn -0.0554 0.9894 0.1339
vn -0.1025 0.9894 0.1025
vn -0.1339 0.9894 0.0554
vn -0.1449 0.9894 -0.0000
vn -0.1339 0.9894 -0.0554
vn -0.1025 0.9894 -0.1025
vn -0.0554 0.9894 -0.1339
vn -0.0000 0.9566 0.2914
vn -0.1115 0.9566 0.2693
vn -0.2061 0.9566 0.2061
vn -0.2693 0.9566 0.1115
vn -0.2914 0.9566 -0.0000
vn -0.2693 0.9566 -0.1115
vn -0.2061 0.9566 -0.2061
vn -0.1115 0.9566 -0.2693
vn -0.0000 0.9566 -0.2914
vn 0.1115 0.9566 -0.2693
vn 0.2061 0.9566 -0.2061
vn 0.2693 0.9566 -0.1115
vn 0.2914 0.9566 -0.0000
vn 0.2693 0.9566 0.1115
vn 0.2061 0.9566 0.2061
vn 0.1115 0.9566 0.2693
vn -0.9996 0.0279 -0.0000
vn 0.9996 0.0279 -0.0000
vn -0.9235 0.0279 -0.3825
vn 0.9235 0.0279 0.3825
vn -0.7068 0.0279 -0.7068
vn 0.7068 0.0279 0.7068
vn -0.3825 0.0279 -0.9235
vn 0.3825 0.0279 0.9235
vn -0.0000 0.0279 -0.9996
vn -0.3825 0.0279 0.9235
vn 0.3825 0.0279 -0.9235
vn -0.7068 0.0279 0.7068
vn 0.7068 0.0279 -0.7068
vn -0.9235 0.0279 0.3825
vn 0.9235 0.0279 -0.3825
vn -0.0000 0.0279 0.9996
vn 0.1353 0.7202 -0.6804
vn 0.3827 -0.0000 -0.9239
vn 0.3854 0.7202 -0.5768
vn 0.7071 -0.0000 -0.7071
vn 0.5768 0.7202 -0.3854
vn 0.9239 -0.0000 -0.3827
vn 0.6804 0.7202 -0.1353
vn 1.0000 -0.0000 -0.0000
vn 0.6804 0.7202 0.1353
vn 0.9239 -0.0000 0.3827
vn 0.5768 0.7202 0.3854
vn 0.7071 -0.0000 0.7071
vn 0.3854 0.7202 0.5768
vn 0.3827 -0.0000 0.9239
vn 0.1353 0.7202 0.6804
vn -0.0000 -0.0000 1.0000
vn -0.1353 0.7202 0.6804
vn -0.3827 -0.0000 0.9239
vn -0.3854 0.7202 0.5768
vn -0.7071 -0.0000 0.7071
vn -0.5768 0.7202 0.3854
vn -0.9239 -0.0000 0.3827
vn -0.6804 0.7202 0.1353
vn -1.0000 -0.0000 -0.0000
vn -0.6804 0.7202 -0.1353
vn -0.9239 -0.0000 -0.3827
vn -0.5768 0.7202 -0.3854
vn -0.7071 -0.0000 -0.7071
vn -0.3854 0.7202 -0.5768
vn -0.3827 -0.0000 -0.9239
vn -0.1353 0.7202 -0.6804
vn -0.1420 0.6858 0.7138
vn -0.4044 0.6858 0.6052
vn -0.6052 0.6858 0.4044
vn -0.7138 0.6858 0.1420
vn -0.7138 0.6858 -0.1420
vn -0.6052 0.6858 -0.4044
vn -0.4044 0.6858 -0.6052
vn -0.1420 0.6858 -0.7138
vn 0.1420 0.6858 -0.7138
vn 0.4044 0.6858 -0.6052
vn 0.6052 0.6858 -0.4044
vn 0.7138 0.6858 -0.1420
vn 0.7138 0.6858 0.1420
vn 0.6052 0.6858 0.4044
vn 0.4044 0.6858 0.6052
vn 0.1420 0.6858 0.7138
vn -0.9239 0.0004 0.3827
vn 0.9239 0.0004 -0.3827
vn -0.0000 0.0004 1.0000
vn -0.1921 0.1731 -0.9660
vn -0.5472 0.1731 -0.8189
vn -0.8189 0.1731 -0.5472
vn -0.9660 0.1731 -0.1921
vn -0.9660 0.1731 0.1921
vn -0.8189 0.1731 0.5472
vn -0.5472 0.1731 0.8189
vn -0.1921 0.1731 0.9660
vn 0.1921 0.1731 0.9660
vn 0.5472 0.1731 0.8189
vn 0.8189 0.1731 0.5472
vn 0.9660 0.1731 0.1921
vn 0.9660 0.1731 -0.1921
vn 0.8189 0.1731 -0.5472
vn 0.5472 0.1731 -0.8189
vn 0.1921 0.1731 -0.9660
vn -0.0000 -0.0000 -1.0000
vn -1.0000 0.0004 -0.0000
vn 1.0000 0.0004 -0.0000
vn -0.9239 0.0004 -0.3827
vn 0.9239 0.0004 0.3827
vn -0.7071 0.0004 -0.7071
vn 0.7071 0.0004 0.7071
vn -0.3827 0.0004 -0.9239
vn 0.3827 0.0004 0.9239
vn -0.0000 0.0004 -1.0000
vn -0.3827 0.0004 0.9239
vn 0.3827 0.0004 -0.9239
vn -0.7071 0.0004 0.7071
vn 0.7071 0.0004 -0.7071
vn -0.0283 0.9895 -0.1421
vn -0.0805 0.9895 -0.1204
vn -0.1204 0.9895 -0.0805
vn -0.1421 0.9895 -0.0283
vn -0.1421 0.9895 0.0283
vn -0.1204 0.9895 0.0805
vn -0.0805 0.9895 0.1204
vn -0.0283 0.9895 0.1421
vn 0.0283 0.9895 0.1421
vn 0.0805 0.9895 0.1204
vn 0.1204 0.9895 0.0805
vn 0.1421 0.9895 0.0283
vn 0.1421 0.9895 -0.0283
vn 0.1204 0.9895 -0.0805
vn 0.0805 0.9895 -0.1204
vn 0.0283 0.9895 -0.1421
vn -0.0569 0.9565 0.2860
vn -0.1620 0.9565 0.2424
vn -0.2424 0.9565 0.1620
vn -0.2860 0.9565 0.0569
vn -0.2860 0.9565 -0.0569
vn -0.2425 0.9565 -0.1620
vn -0.1620 0.9565 -0.2424
vn -0.0569 0.9565 -0.2860
vn 0.0569 0.9565 -0.2860
vn 0.1620 0.9565 -0.2424
vn 0.2424 0.9565 -0.1620
vn 0.2860 0.9565 -0.0569
vn 0.2860 0.9565 0.0569
vn 0.2424 0.9565 0.1620
vn 0.1620 0.9565 0.2424
vn 0.0569 0.9565 0.2860
vn -0.9804 0.0279 0.1950
vn 0.9804 0.0279 -0.1950
vn -0.9804 0.0279 -0.1950
vn 0.9804 0.0279 0.1950
vn -0.8311 0.0279 -0.5554
vn 0.8311 0.0279 0.5554
vn -0.5554 0.0279 -0.8311
vn 0.5554 0.0279 0.8311
vn -0.1950 0.0279 -0.9804
vn -0.1950 0.0279 0.9804
vn 0.1950 0.0279 0.9804
vn 0.1950 0.0279 -0.9804
vn -0.5554 0.0279 0.8311
vn 0.5554 0.0279 -0.8311
vn -0.8311 0.0279 0.5554
vn 0.8311 0.0279 -0.5554
vn -0.9808 0.0004 0.1951
vn -0.0000 1.0000 -0.0000
vn 0.9808 0.0004 -0.1951
vn -0.9808 0.0004 -0.1951
vn 0.9808 0.0004 0.1951
vn -0.8315 0.0004 -0.5556
vn 0.8315 0.0004 0.5556
vn -0.5556 0.0004 -0.8315
vn 0.5556 0.0004 0.8315
vn -0.1951 0.0004 -0.9808
vn -0.1951 0.0004 0.9808
vn 0.1951 0.0004 0.9808
vn 0.1951 0.0004 -0.9808
vn -0.5556 0.0004 0.8315
vn 0.5556 0.0004 -0.8315
vn -0.8315 0.0004 0.5556
vn 0.8315 0.0004 -0.5556
vn 0.1951 -0.0000 -0.9808
vn 0.5556 -0.0000 -0.8315
vn 0.8315 -0.0000 -0.5556
vn 0.9808 -0.0000 -0.1951
vn 0.9808 -0.0000 0.1951
vn 0.8315 -0.0000 0.5556
vn 0.5556 -0.0000 0.8315
vn 0.1951 -0.0000 0.9808
vn -0.1951 -0.0000 0.9808
vn -0.5556 -0.0000 0.8315
vn -0.8315 -0.0000 0.5556
vn -0.9808 -0.0000 0.1951
vn -0.9808 -0.0000 -0.1951
vn -0.8315 -0.0000 -0.5556
vn -0.5556 -0.0000 -0.8315
vn -0.1951 -0.0000 -0.9808
vn -0.0000 0.6682 0.7439
vn -0.0000 0.2792 0.9602
vn -0.3675 0.2792 0.8871
vn -0.2847 0.6682 0.6873
vn -0.6790 0.2792 0.6790
vn -0.5261 0.6682 0.5260
vn -0.8871 0.2792 0.3675
vn -0.6873 0.6682 0.2847
vn -0.9602 0.2792 -0.0000
vn -0.7439 0.6682 -0.0000
vn -0.8871 0.2792 -0.3675
vn -0.6873 0.6682 -0.2847
vn -0.6790 0.2792 -0.6790
vn -0.5261 0.6682 -0.5260
vn -0.3675 0.2792 -0.8871
vn -0.2847 0.6682 -0.6873
vn -0.0000 0.2792 -0.9602
vn -0.0000 0.6682 -0.7439
vn 0.3675 0.2792 -0.8871
vn 0.2847 0.6682 -0.6873
vn 0.6790 0.2792 -0.6790
vn 0.5261 0.6682 -0.5260
vn 0.8871 0.2792 -0.3675
vn 0.6873 0.6682 -0.2847
vn 0.9602 0.2792 -0.0000
vn 0.7439 0.6682 -0.0000
vn 0.8871 0.2792 0.3675
vn 0.6873 0.6682 0.2847
vn 0.6790 0.2792 0.6790
vn 0.5261 0.6682 0.5260
vn 0.3675 0.2792 0.8871
vn 0.2847 0.6682 0.6873
vn -0.1451 0.6682 0.7297
vn -0.1873 0.2792 0.9418
vn -0.4133 0.6682 0.6186
vn -0.5335 0.2792 0.7984
vn -0.6186 0.6682 0.4133
vn -0.7984 0.2792 0.5335
vn -0.7297 0.6682 0.1451
vn -0.9418 0.2792 0.1873
vn -0.7297 0.6682 -0.1451
vn -0.9418 0.2792 -0.1873
vn -0.6186 0.6682 -0.4133
vn -0.7984 0.2792 -0.5335
vn -0.4133 0.6682 -0.6186
vn -0.5335 0.2792 -0.7984
vn -0.1451 0.6682 -0.7297
vn -0.1873 0.2792 -0.9418
vn 0.1451 0.6682 -0.7297
vn 0.1873 0.2792 -0.9418
vn 0.4133 0.6682 -0.6186
vn 0.5335 0.2792 -0.7984
vn 0.6186 0.6682 -0.4133
vn 0.7984 0.2792 -0.5335
vn 0.7297 0.6682 -0.1451
vn 0.9418 0.2792 -0.1873
vn 0.7297 0.6682 0.1451
vn 0.9418 0.2792 0.1873
vn 0.6186 0.6682 0.4133
vn 0.7984 0.2792 0.5335
vn 0.4133 0.6682 0.6186
vn 0.5335 0.2792 0.7984
vn 0.1451 0.6682 0.7297
vn 0.1873 0.2792 0.9418
vn -0.0000 -0.9185 -0.3955
vn -0.0000 -0.3812 -0.9245
vn 0.3538 -0.3812 -0.8541
vn 0.1513 -0.9185 -0.3654
vn 0.6537 -0.3812 -0.6537
vn 0.2796 -0.9185 -0.2796
vn 0.8541 -0.3812 -0.3538
vn 0.3654 -0.9185 -0.1513
vn 0.9245 -0.3812 -0.0000
vn 0.3955 -0.9185 -0.0000
vn 0.8541 -0.3812 0.3538
vn 0.3654 -0.9185 0.1513
vn 0.6537 -0.3812 0.6537
vn 0.2796 -0.9185 0.2796
vn 0.3538 -0.3812 0.8541
vn 0.1513 -0.9185 0.3654
vn -0.0000 -0.3812 0.9245
vn -0.0000 -0.9185 0.3955
vn -0.3538 -0.3812 0.8541
vn -0.1513 -0.9185 0.3654
vn -0.6537 -0.3812 0.6537
vn -0.2796 -0.9185 0.2796
vn -0.8541 -0.3812 0.3538
vn -0.3654 -0.9185 0.1513
vn -0.9245 -0.3812 -0.0000
vn -0.3955 -0.9185 -0.0000
vn -0.8541 -0.3812 -0.3538
vn -0.3654 -0.9185 -0.1513
vn -0.6537 -0.3812 -0.6537
vn -0.2796 -0.9185 -0.2796
vn -0.3538 -0.3812 -0.8541
vn -0.1513 -0.9185 -0.3654
vn 0.1804 -0.3813 -0.9067
vn 0.0771 -0.9185 -0.3878
vn 0.5136 -0.3813 -0.7687
vn 0.2197 -0.9185 -0.3287
vn 0.7687 -0.3813 -0.5136
vn 0.3287 -0.9185 -0.2196
vn 0.9067 -0.3813 -0.1804
vn 0.3878 -0.9185 -0.0771
vn 0.9067 -0.3813 0.1804
vn 0.3878 -0.9185 0.0771
vn 0.7687 -0.3813 0.5136
vn 0.3287 -0.9185 0.2197
vn 0.5136 -0.3813 0.7687
vn 0.2197 -0.9185 0.3287
vn 0.1804 -0.3813 0.9067
vn 0.0771 -0.9185 0.3878
vn -0.1804 -0.3813 0.9067
vn -0.0771 -0.9185 0.3878
vn -0.5136 -0.3813 0.7687
vn -0.2197 -0.9185 0.3287
vn -0.7687 -0.3813 0.5136
vn -0.3287 -0.9185 0.2196
vn -0.9067 -0.3813 0.1804
vn -0.3878 -0.9185 0.0771
vn -0.9067 -0.3813 -0.1804
vn -0.3878 -0.9185 -0.0771
vn -0.7687 -0.3813 -0.5136
vn -0.3287 -0.9185 -0.2196
vn -0.5136 -0.3813 -0.7687
vn -0.2197 -0.9185 -0.3287
vn -0.1804 -0.3813 -0.9067
vn -0.0771 -0.9185 -0.3878
vt 0.999981 0.996732
vt 1.000000 1.000000
vt 0.968750 1.000000
vt 0.968750 0.996732
vt 0.937500 1.000000
vt 0.937500 0.996732
vt 0.906250 1.000000
vt 0.906250 0.996732
vt 0.875000 1.000000
vt 0.875000 0.996732
vt 0.843750 1.000000
vt 0.843750 0.996732
vt 0.812500 1.000000
vt 0.812500 0.996732
vt 0.781250 1.000000
vt 0.781250 0.996732
vt 0.750000 1.000000
vt 0.750000 0.996732
vt 0.718750 1.000000
vt 0.718750 0.996732
vt 0.687500 1.000000
vt 0.687500 0.996732
vt 0.656250 1.000000
vt 0.656250 0.996732
vt 0.625000 1.000000
vt 0.625000 0.996732
vt 0.593750 1.000000
vt 0.593750 0.996732
vt 0.562500 1.000000
vt 0.562500 0.996732
vt 0.531250 1.000000
vt 0.531250 0.996732
vt 0.500000 1.000000
vt 0.500000 0.996732
vt 0.468750 1.000000
vt 0.468750 0.996732
vt 0.437500 1.000000
vt 0.437500 0.996732
vt 0.406250 1.000000
vt 0.406250 0.996732
vt 0.375000 1.000000
vt 0.375000 0.996732
vt 0.343750 1.000000
vt 0.343750 0.996732
vt 0.312500 1.000000
vt 0.312500 0.996732
vt 0.281250 1.000000
vt 0.281250 0.996732
vt 0.250000 1.000000
vt 0.250000 0.996732
vt 0.218750 1.000000
vt 0.218750 0.996732
vt 0.187500 1.000000
vt 0.187500 0.996732
vt 0.156250 1.000000
vt 0.156250 0.996732
vt 0.125000 1.000000
vt 0.125000 0.996732
vt 0.437506 0.287297
vt 0.426638 0.323166
vt 0.426638 0.323166
vt 0.437506 0.287297
vt 0.441192 0.250000
vt 0.441192 0.250000
vt 0.093750 1.000000
vt 0.093750 0.996732
vt 0.062500 1.000000
vt 0.062500 0.996732
vt 0.031250 1.000000
vt 0.031250 0.996732
vt 0.000000 1.000000
vt 0.000019 0.996732
vt 0.294236 0.472388
vt 0.335909 0.457402
vt 0.341844 0.471731
vt 0.295922 0.480866
vt 0.250000 0.474490
vt 0.250000 0.490000
vt 0.375973 0.438531
vt 0.408738 0.408738
vt 0.419706 0.419706
vt 0.380775 0.445718
vt 0.438531 0.375973
vt 0.457402 0.335909
vt 0.471731 0.341844
vt 0.445718 0.380775
vt 0.472388 0.294236
vt 0.474490 0.250000
vt 0.490000 0.250000
vt 0.480866 0.295922
vt 0.472388 0.205764
vt 0.457402 0.164091
vt 0.471731 0.158156
vt 0.480866 0.204078
vt 0.438531 0.124028
vt 0.408738 0.091262
vt 0.419706 0.080294
vt 0.445718 0.119225
vt 0.375973 0.061469
vt 0.335909 0.042598
vt 0.341844 0.028269
vt 0.380775 0.054282
vt 0.294236 0.027612
vt 0.250000 0.025510
vt 0.250000 0.010000
vt 0.295922 0.019134
vt 0.205764 0.027612
vt 0.164091 0.042598
vt 0.158156 0.028269
vt 0.204078 0.019134
vt 0.124028 0.061469
vt 0.091262 0.091262
vt 0.080294 0.080294
vt 0.119225 0.054282
vt 0.061469 0.124028
vt 0.042598 0.164091
vt 0.028269 0.158156
vt 0.054282 0.119225
vt 0.027612 0.205764
vt 0.025510 0.250000
vt 0.010000 0.250000
vt 0.019134 0.204078
vt 0.027612 0.294236
vt 0.042598 0.335909
vt 0.028269 0.341844
vt 0.019134 0.295922
vt 0.061469 0.375973
vt 0.091262 0.408738
vt 0.080294 0.419706
vt 0.054282 0.380775
vt 0.124028 0.438531
vt 0.164091 0.457402
vt 0.158156 0.471731
vt 0.119225 0.445718
vt 0.205764 0.472388
vt 0.204078 0.480866
vt 0.323166 0.426638
vt 0.287297 0.437506
vt 0.249988 0.249971
vt 0.356214 0.408960
vt 0.250000 0.441191
vt 0.212703 0.437506
vt 0.176834 0.426638
vt 0.143787 0.408960
vt 0.114807 0.385193
vt 0.091040 0.356213
vt 0.073362 0.323166
vt 0.062494 0.287297
vt 0.058809 0.250000
vt 0.062494 0.212703
vt 0.073362 0.176834
vt 0.090600 0.143347
vt 0.111288 0.111288
vt 0.143109 0.090026
vt 0.174929 0.068764
vt 0.212465 0.061297
vt 0.250000 0.053831
vt 0.287297 0.061872
vt 0.323166 0.073362
vt 0.356214 0.091040
vt 0.385193 0.114807
vt 0.408960 0.143787
vt 0.426638 0.176834
vt 0.437506 0.212703
vt 0.408960 0.356214
vt 0.385193 0.385193
vt 0.062494 0.212703
vt 0.073362 0.176834
vt 0.437602 0.212663
vt 0.427021 0.176675
vt 0.062398 0.287337
vt 0.072979 0.323325
vt 0.409129 0.143674
vt 0.385486 0.114514
vt 0.090871 0.356326
vt 0.114514 0.385486
vt 0.356327 0.090871
vt 0.323325 0.072979
vt 0.143674 0.409129
vt 0.176675 0.427021
vt 0.287337 0.061776
vt 0.250000 0.053831
vt 0.287297 0.437506
vt 0.250000 0.441192
vt 0.323166 0.426638
vt 0.212663 0.437602
vt 0.212623 0.061680
vt 0.176517 0.072596
vt 0.356213 0.408960
vt 0.385193 0.385193
vt 0.143267 0.090409
vt 0.111288 0.111288
vt 0.090600 0.143347
vt 0.062500 0.506460
vt 0.062500 0.996675
vt 0.031250 0.996675
vt 0.031250 0.506460
vt 0.000000 0.996675
vt 0.000000 0.506460
vt 0.125000 0.506460
vt 0.125000 0.996675
vt 0.093750 0.996675
vt 0.093750 0.506460
vt 0.187500 0.506460
vt 0.187500 0.996675
vt 0.156250 0.996675
vt 0.156250 0.506460
vt 0.250000 0.506460
vt 0.250000 0.996675
vt 0.218750 0.996675
vt 0.218750 0.506460
vt 0.312500 0.506460
vt 0.312500 0.996675
vt 0.281250 0.996675
vt 0.281250 0.506460
vt 0.375000 0.506460
vt 0.375000 0.996675
vt 0.343750 0.996675
vt 0.343750 0.506460
vt 0.437500 0.506460
vt 0.437500 0.996675
vt 0.406250 0.996675
vt 0.406250 0.506460
vt 0.500000 0.506460
vt 0.500000 0.996675
vt 0.468750 0.996675
vt 0.468750 0.506460
vt 0.562500 0.506460
vt 0.562500 0.996675
vt 0.531250 0.996675
vt 0.531250 0.506460
vt 0.625000 0.506460
vt 0.625000 0.996675
vt 0.593750 0.996675
vt 0.593750 0.506460
vt 0.687500 0.506460
vt 0.687500 0.996675
vt 0.656250 0.996675
vt 0.656250 0.506460
vt 0.750000 0.506460
vt 0.750000 0.996675
vt 0.718750 0.996675
vt 0.718750 0.506460
vt 0.812500 0.506460
vt 0.812500 0.996675
vt 0.781250 0.996675
vt 0.781250 0.506460
vt 0.875000 0.506460
vt 0.875000 0.996675
vt 0.843750 0.996675
vt 0.843750 0.506460
vt 0.937500 0.506460
vt 0.937500 0.996675
vt 0.906250 0.996675
vt 0.906250 0.506460
vt 1.000000 0.506460
vt 1.000000 0.996675
vt 0.968750 0.996675
vt 0.968750 0.506460
vt 0.750000 0.434898
vt 0.713969 0.431142
vt 0.705658 0.472921
vt 0.750000 0.481196
vt 0.937500 0.500841
vt 0.937500 0.506460
vt 0.906250 0.500841
vt 0.852609 0.403564
vt 0.820758 0.420824
vt 0.838475 0.463598
vt 0.876275 0.438983
vt 0.875000 0.500841
vt 0.875000 0.506460
vt 0.843750 0.506460
vt 0.843750 0.500841
vt 0.903564 0.352608
vt 0.880743 0.380742
vt 0.913480 0.413480
vt 0.938983 0.376275
vt 0.812500 0.500841
vt 0.781250 0.500841
vt 0.931142 0.286031
vt 0.920823 0.320757
vt 0.963597 0.338475
vt 0.972921 0.294342
vt 0.750000 0.500841
vt 0.718750 0.506460
vt 0.718750 0.500841
vt 0.931141 0.213969
vt 0.934898 0.250000
vt 0.981196 0.250000
vt 0.972921 0.205658
vt 0.687500 0.500841
vt 0.656250 0.500841
vt 0.903564 0.147392
vt 0.920824 0.179243
vt 0.963598 0.161525
vt 0.938983 0.123725
vt 0.625000 0.500841
vt 0.593750 0.506460
vt 0.593750 0.500841
vt 0.852608 0.096436
vt 0.880743 0.119258
vt 0.913480 0.086520
vt 0.876275 0.061017
vt 0.562500 0.500841
vt 0.531250 0.500841
vt 0.786031 0.068858
vt 0.820757 0.079177
vt 0.838475 0.036403
vt 0.794342 0.027079
vt 0.500000 0.500841
vt 0.468750 0.506460
vt 0.468750 0.500841
vt 0.713969 0.068859
vt 0.750000 0.065102
vt 0.750000 0.018804
vt 0.705658 0.027079
vt 0.437500 0.500841
vt 0.437500 0.506460
vt 0.406250 0.500841
vt 0.647392 0.096436
vt 0.679242 0.079176
vt 0.661525 0.036402
vt 0.623725 0.061017
vt 0.375000 0.500841
vt 0.375000 0.506460
vt 0.343750 0.506460
vt 0.343750 0.500841
vt 0.596436 0.147392
vt 0.619258 0.119258
vt 0.586520 0.086520
vt 0.561017 0.123725
vt 0.312500 0.500841
vt 0.281250 0.500841
vt 0.568858 0.213969
vt 0.579177 0.179243
vt 0.536403 0.161525
vt 0.527079 0.205658
vt 0.250000 0.500841
vt 0.218750 0.506460
vt 0.218750 0.500841
vt 0.568859 0.286031
vt 0.565102 0.250000
vt 0.518804 0.250000
vt 0.527079 0.294342
vt 0.187500 0.500841
vt 0.187500 0.506460
vt 0.156250 0.500841
vt 0.596436 0.352608
vt 0.579177 0.320757
vt 0.536403 0.338475
vt 0.561017 0.376275
vt 0.125000 0.500841
vt 0.093750 0.500841
vt 0.647392 0.403564
vt 0.619258 0.380742
vt 0.586520 0.413480
vt 0.623726 0.438983
vt 0.062500 0.500841
vt 0.031250 0.500841
vt 0.679243 0.420823
vt 0.661525 0.463597
vt 1.000000 0.500841
vt 0.968750 0.506460
vt 0.968750 0.500841
vt 0.000000 0.500841
vt 0.968750 0.500841
vt 0.938983 0.376275
vt 0.781250 0.500841
vt 0.750000 0.500841
vt 0.972921 0.205658
vt 0.963598 0.161525
vt 0.938983 0.123725
vt 0.656250 0.500841
vt 0.625000 0.500841
vt 0.876275 0.061017
vt 0.794342 0.027079
vt 0.531250 0.500841
vt 0.500000 0.500841
vt 0.705658 0.027079
vt 0.661525 0.036402
vt 0.468750 0.500841
vt 0.623725 0.061017
vt 0.375000 0.500841
vt 0.281250 0.500841
vt 0.250000 0.500841
vt 0.536403 0.338475
vt 0.218750 0.500841
vt 0.623725 0.438983
vt 0.786031 0.431141
vt 0.794342 0.472921
vt 0.838475 0.463598
vt 0.090892 0.143687
vt 0.114681 0.114681
vt 0.073197 0.176766
vt 0.073362 0.176834
vt 0.409775 0.356692
vt 0.388731 0.388731
vt 0.431226 0.325063
vt 0.143687 0.090892
vt 0.176766 0.073195
vt 0.143267 0.090409
vt 0.356692 0.409775
vt 0.325063 0.431226
vt 0.356213 0.408960
vt 0.212668 0.062140
vt 0.250001 0.057448
vt 0.212465 0.438703
vt 0.174932 0.431234
vt 0.176675 0.427021
vt 0.249999 0.446166
vt 0.287552 0.438786
vt 0.287297 0.437506
vt 0.287552 0.061609
vt 0.325061 0.068776
vt 0.323325 0.072979
vt 0.287337 0.061776
vt 0.143341 0.409765
vt 0.113844 0.386157
vt 0.114514 0.385486
vt 0.143674 0.409129
vt 0.356566 0.090352
vt 0.386619 0.113375
vt 0.090600 0.356508
vt 0.072106 0.323687
vt 0.409388 0.143542
vt 0.431243 0.174930
vt 0.062154 0.287401
vt 0.058628 0.250001
vt 0.438443 0.212573
vt 0.446157 0.250003
vt 0.441191 0.250000
vt 0.062319 0.212668
vt 0.438786 0.287552
vt 0.437506 0.287297
vt 0.212164 0.440213
vt 0.250000 0.443952
vt 0.250000 0.478201
vt 0.205483 0.473802
vt 0.175778 0.429188
vt 0.162671 0.460830
vt 0.142253 0.411255
vt 0.123226 0.439730
vt 0.112855 0.387145
vt 0.088637 0.411363
vt 0.088745 0.357747
vt 0.060270 0.376774
vt 0.070812 0.324222
vt 0.039170 0.337329
vt 0.059787 0.287836
vt 0.026198 0.294517
vt 0.056048 0.250000
vt 0.021799 0.250000
vt 0.059787 0.212164
vt 0.026198 0.205483
vt 0.070812 0.175778
vt 0.039170 0.162671
vt 0.088745 0.142253
vt 0.060270 0.123226
vt 0.112855 0.112855
vt 0.088637 0.088637
vt 0.142253 0.088745
vt 0.123226 0.060270
vt 0.175778 0.070812
vt 0.162671 0.039170
vt 0.212164 0.059787
vt 0.205483 0.026198
vt 0.250000 0.056048
vt 0.250000 0.021799
vt 0.287836 0.059787
vt 0.294517 0.026198
vt 0.324222 0.070812
vt 0.337329 0.039170
vt 0.357747 0.088745
vt 0.376774 0.060270
vt 0.387145 0.112855
vt 0.411363 0.088637
vt 0.411255 0.142253
vt 0.439730 0.123226
vt 0.429188 0.175778
vt 0.460830 0.162671
vt 0.440213 0.212164
vt 0.473802 0.205483
vt 0.443952 0.250000
vt 0.478201 0.250000
vt 0.440213 0.287836
vt 0.473802 0.294517
vt 0.429188 0.324222
vt 0.460830 0.337329
vt 0.411255 0.357747
vt 0.439730 0.376774
vt 0.387145 0.387145
vt 0.411363 0.411363
vt 0.357747 0.411255
vt 0.376774 0.439730
vt 0.324222 0.429188
vt 0.337329 0.460830
vt 0.287836 0.440213
vt 0.294517 0.473802
vt 0.250000 0.446168
vt 0.212465 0.438703
vt 0.356821 0.409904
vt 0.325068 0.431233
vt 0.287639 0.439222
vt 0.324521 0.429911
vt 0.323781 0.428126
vt 0.287730 0.439681
vt 0.409904 0.356821
vt 0.388272 0.388272
vt 0.387463 0.387463
vt 0.357131 0.410333
vt 0.387696 0.387696
vt 0.386328 0.386328
vt 0.357453 0.410815
vt 0.438847 0.287564
vt 0.431233 0.325068
vt 0.410333 0.357131
vt 0.429911 0.324521
vt 0.428126 0.323781
vt 0.410815 0.357453
vt 0.438611 0.212503
vt 0.446165 0.250001
vt 0.439222 0.287639
vt 0.444734 0.250001
vt 0.442802 0.250001
vt 0.439682 0.287730
vt 0.409768 0.143261
vt 0.430658 0.175171
vt 0.429594 0.175615
vt 0.439125 0.212381
vt 0.429909 0.175479
vt 0.428121 0.176220
vt 0.439694 0.212268
vt 0.356777 0.090140
vt 0.387975 0.112023
vt 0.410333 0.142869
vt 0.387696 0.112304
vt 0.386328 0.113672
vt 0.410815 0.142547
vt 0.287564 0.061603
vt 0.325067 0.068768
vt 0.357131 0.089667
vt 0.324521 0.070088
vt 0.323781 0.071870
vt 0.357453 0.089185
vt 0.212632 0.062077
vt 0.250001 0.058031
vt 0.287639 0.061021
vt 0.250000 0.057537
vt 0.249999 0.056444
vt 0.287730 0.060243
vt 0.143586 0.090740
vt 0.176696 0.073028
vt 0.212455 0.061246
vt 0.176347 0.072186
vt 0.175928 0.071175
vt 0.212241 0.060173
vt 0.090740 0.143586
vt 0.114552 0.114552
vt 0.143079 0.089982
vt 0.113907 0.113907
vt 0.113133 0.113133
vt 0.142472 0.089072
vt 0.062140 0.212632
vt 0.073029 0.176696
vt 0.089982 0.143079
vt 0.072186 0.176347
vt 0.071175 0.175928
vt 0.089072 0.142472
vt 0.062082 0.287392
vt 0.058447 0.250000
vt 0.061246 0.212454
vt 0.057536 0.250000
vt 0.056441 0.250000
vt 0.060173 0.212241
vt 0.090637 0.356483
vt 0.072644 0.323463
vt 0.061246 0.287546
vt 0.072186 0.323653
vt 0.071175 0.324072
vt 0.060173 0.287759
vt 0.143345 0.409778
vt 0.114257 0.385743
vt 0.089982 0.356921
vt 0.113908 0.386092
vt 0.113135 0.386864
vt 0.089072 0.357528
vt 0.212465 0.438703
vt 0.174930 0.431236
vt 0.142986 0.410243
vt 0.175477 0.429911
vt 0.176215 0.428128
vt 0.142501 0.410858
vt 0.287564 0.438847
vt 0.444734 0.250001
vt 0.439125 0.212381
vt 0.446165 0.250001
vt 0.438847 0.287564
vt 0.057536 0.250000
vt 0.061246 0.287546
vt 0.410333 0.142869
vt 0.430658 0.175171
vt 0.072186 0.323653
vt 0.089982 0.356921
vt 0.072644 0.323463
vt 0.387696 0.112304
vt 0.357131 0.089667
vt 0.387975 0.112023
vt 0.113908 0.386092
vt 0.090637 0.356483
vt 0.287639 0.061021
vt 0.325067 0.068768
vt 0.356777 0.090140
vt 0.212381 0.439125
vt 0.212267 0.439694
vt 0.143345 0.409778
vt 0.250000 0.057537
vt 0.212455 0.061246
vt 0.324521 0.429911
vt 0.250000 0.444734
vt 0.250001 0.442802
vt 0.250000 0.444734
vt 0.176347 0.072186
vt 0.176696 0.073028
vt 0.387696 0.387696
vt 0.410333 0.357131
vt 0.388272 0.388272
vt 0.356821 0.409904
vt 0.113907 0.113907
vt 0.114552 0.114552
vt 0.143586 0.090740
vt 0.439222 0.287639
vt 0.431233 0.325068
vt 0.409904 0.356821
vt 0.072186 0.176347
vt 0.073029 0.176696
vt 0.090740 0.143586
vt 0.750000 0.339398
vt 0.750000 0.439473
vt 0.786254 0.432262
vt 0.822508 0.425050
vt 0.784211 0.332593
vt 0.853243 0.404514
vt 0.883978 0.383978
vt 0.813214 0.313214
vt 0.904514 0.353243
vt 0.925050 0.322508
vt 0.832593 0.284211
vt 0.925050 0.322508
vt 0.932262 0.286254
vt 0.939473 0.250000
vt 0.839398 0.250000
vt 0.939473 0.250000
vt 0.932262 0.213746
vt 0.925050 0.177492
vt 0.832593 0.215789
vt 0.925050 0.177492
vt 0.904514 0.146757
vt 0.883978 0.116022
vt 0.813214 0.186786
vt 0.853243 0.095486
vt 0.822508 0.074950
vt 0.784211 0.167407
vt 0.786254 0.067738
vt 0.750000 0.060527
vt 0.750000 0.160602
vt 0.750000 0.060527
vt 0.713746 0.067738
vt 0.677492 0.074950
vt 0.715789 0.167407
vt 0.646757 0.095486
vt 0.616022 0.116022
vt 0.686786 0.186786
vt 0.616022 0.116022
vt 0.595486 0.146757
vt 0.574950 0.177492
vt 0.667407 0.215789
vt 0.574950 0.177492
vt 0.567738 0.213746
vt 0.560527 0.250000
vt 0.660602 0.250000
vt 0.560527 0.250000
vt 0.567738 0.286254
vt 0.574950 0.322508
vt 0.667407 0.284211
vt 0.595486 0.353243
vt 0.616022 0.383978
vt 0.686786 0.313214
vt 0.646757 0.404514
vt 0.677492 0.425050
vt 0.715789 0.332593
vt 0.713746 0.432262
vt 0.250000 0.446168
vt 0.750000 0.490000
vt 0.795922 0.480866
vt 0.794342 0.472921
vt 0.841844 0.471731
vt 0.880775 0.445718
vt 0.919706 0.419706
vt 0.945718 0.380775
vt 0.971731 0.341844
vt 0.980866 0.295922
vt 0.990000 0.250000
vt 0.980866 0.204078
vt 0.971731 0.158156
vt 0.945718 0.119225
vt 0.919706 0.080294
vt 0.880775 0.054282
vt 0.841844 0.028269
vt 0.795922 0.019134
vt 0.750000 0.010000
vt 0.704078 0.019134
vt 0.658156 0.028269
vt 0.619225 0.054282
vt 0.580294 0.080294
vt 0.554282 0.119225
vt 0.528269 0.158156
vt 0.519135 0.204078
vt 0.510000 0.250000
vt 0.519135 0.295922
vt 0.528269 0.341844
vt 0.554282 0.380775
vt 0.580294 0.419706
vt 0.619225 0.445718
vt 0.658156 0.471731
vt 0.704078 0.480866
s 1
f 34/1/34 3/2/3 114/3/98 179/4/163
f 179/4/163 114/3/98 2/5/2 35/6/35
f 35/6/35 2/5/2 116/7/100 178/8/162
f 178/8/162 116/7/100 4/9/4 36/10/36
f 36/10/36 4/9/4 118/11/102 177/12/161
f 177/12/161 118/11/102 5/13/5 37/14/37
f 37/14/37 5/13/5 120/15/104 176/16/160
f 176/16/160 120/15/104 6/17/6 38/18/38
f 38/18/38 6/17/6 122/19/106 175/20/159
f 175/20/159 122/19/106 7/21/7 39/22/39
f 39/22/39 7/21/7 124/23/108 174/24/158
f 174/24/158 124/23/108 8/25/8 40/26/40
f 40/26/40 8/25/8 126/27/110 173/28/157
f 173/28/157 126/27/110 9/29/9 41/30/41
f 41/30/41 9/29/9 128/31/112 172/32/156
f 172/32/156 128/31/112 10/33/10 42/34/42
f 42/34/42 10/33/10 130/35/114 171/36/155
f 171/36/155 130/35/114 11/37/11 43/38/43
f 43/38/43 11/37/11 132/39/116 170/40/154
f 170/40/154 132/39/116 12/41/12 44/42/44
f 44/42/44 12/41/12 134/43/118 169/44/153
f 169/44/153 134/43/118 13/45/13 45/46/45
f 45/46/45 13/45/13 136/47/120 168/48/152
f 168/48/152 136/47/120 14/49/14 46/50/46
f 46/50/46 14/49/14 138/51/122 167/52/151
f 167/52/151 138/51/122 15/53/15 47/54/47
f 47/54/47 15/53/15 140/55/124 166/56/150
f 166/56/150 140/55/124 16/57/16 48/58/48
f 258/59/226 161/60/145 21/61/21 148/62/132
f 197/63/165 258/59/226 148/62/132 22/64/22
f 48/58/48 16/57/16 142/65/126 165/66/149
f 165/66/149 142/65/126 17/67/17 49/68/49
f 49/68/49 17/67/17 144/69/128 164/70/148
f 164/70/148 144/69/128 3/71/3 34/72/34
f 225/73/193 51/74/51 2/75/2 114/76/98
f 50/77/50 225/73/193 114/76/98 3/78/3
f 224/79/192 52/80/52 4/81/4 116/82/100
f 51/74/51 224/79/192 116/82/100 2/75/2
f 223/83/191 53/84/53 5/85/5 118/86/102
f 52/80/52 223/83/191 118/86/102 4/81/4
f 222/87/190 54/88/54 6/89/6 120/90/104
f 53/84/53 222/87/190 120/90/104 5/85/5
f 221/91/189 55/92/55 7/93/7 122/94/106
f 54/88/54 221/91/189 122/94/106 6/89/6
f 220/95/188 56/96/56 8/97/8 124/98/108
f 55/92/55 220/95/188 124/98/108 7/93/7
f 219/99/187 57/100/57 9/101/9 126/102/110
f 56/96/56 219/99/187 126/102/110 8/97/8
f 218/103/186 58/104/58 10/105/10 128/106/112
f 57/100/57 218/103/186 128/106/112 9/101/9
f 217/107/185 59/108/59 11/109/11 130/110/114
f 58/104/58 217/107/185 130/110/114 10/105/10
f 216/111/184 60/112/60 12/113/12 132/114/116
f 59/108/59 216/111/184 132/114/116 11/109/11
f 215/115/183 61/116/61 13/117/13 134/118/118
f 60/112/60 215/115/183 134/118/118 12/113/12
f 214/119/182 62/120/62 14/121/14 136/122/120
f 61/116/61 214/119/182 136/122/120 13/117/13
f 213/123/181 63/124/63 15/125/15 138/126/122
f 62/120/62 213/123/181 138/126/122 14/121/14
f 212/127/180 64/128/64 16/129/16 140/130/124
f 63/124/63 212/127/180 140/130/124 15/125/15
f 211/131/179 65/132/65 17/133/17 142/134/126
f 64/128/64 211/131/179 142/134/126 16/129/16
f 210/135/178 50/77/50 3/78/3 144/136/128
f 65/132/65 210/135/178 144/136/128 17/133/17
f 19/137/19 145/138/129 259/139/227 146/140/130
f 18/141/18 160/142/144 259/139/227 145/138/129
f 33/143/33 159/144/143 259/139/227 160/142/144
f 32/145/32 158/146/142 259/139/227 159/144/143
f 31/147/31 157/148/141 259/139/227 158/146/142
f 30/149/30 156/150/140 259/139/227 157/148/141
f 29/151/29 155/152/139 259/139/227 156/150/140
f 28/153/28 154/154/138 259/139/227 155/152/139
f 27/155/27 153/156/137 259/139/227 154/154/138
f 26/157/26 152/158/136 259/139/227 153/156/137
f 25/159/25 151/160/135 259/139/227 152/158/136
f 24/161/24 150/162/134 259/139/227 151/160/135
f 23/163/23 149/164/133 259/139/227 150/162/134
f 22/64/22 148/62/132 259/139/227 149/164/133
f 21/61/21 147/165/131 259/139/227 148/62/132
f 20/166/20 146/140/130 259/139/227 147/165/131
f 260/167/228 162/168/146 29/151/29 156/150/140
f 198/149/166 260/167/228 156/150/140 30/149/30
f 261/169/229 197/63/165 22/64/22 149/164/133
f 199/170/167 261/169/229 149/164/133 23/163/23
f 262/171/230 198/149/166 30/149/30 157/148/141
f 200/172/168 262/171/230 157/148/141 31/147/31
f 263/173/231 199/170/167 23/163/23 150/162/134
f 201/174/169 263/173/231 150/162/134 24/161/24
f 264/175/232 200/172/168 31/147/31 158/146/142
f 202/176/170 264/175/232 158/146/142 32/145/32
f 265/177/233 201/174/169 24/161/24 151/160/135
f 203/178/171 265/177/233 151/160/135 25/159/25
f 266/179/234 202/176/170 32/145/32 159/144/143
f 204/180/172 266/179/234 159/144/143 33/143/33
f 267/181/235 203/178/171 25/159/25 152/158/136
f 205/182/173 267/181/235 152/158/136 26/157/26
f 268/183/236 163/184/147 18/141/18 145/138/129
f 206/185/174 268/183/236 145/138/129 19/137/19
f 269/186/237 204/180/172 33/143/33 160/142/144
f 163/184/147 269/186/237 160/142/144 18/141/18
f 270/187/238 205/182/173 26/157/26 153/156/137
f 207/188/175 270/187/238 153/156/137 27/155/27
f 271/189/239 206/185/174 19/137/19 146/140/130
f 208/190/176 271/189/239 146/140/130 20/166/20
f 272/191/240 207/188/175 27/155/27 154/154/138
f 209/192/177 272/191/240 154/154/138 28/153/28
f 273/165/241 208/190/176 20/166/20 147/165/131
f 161/60/145 273/165/241 147/165/131 21/61/21
f 274/193/242 209/192/177 28/153/28 155/152/139
f 162/168/146 274/193/242 155/152/139 29/151/29
f 143/194/127 49/195/49 164/196/148 290/197/258
f 290/197/258 164/196/148 34/198/34 180/199/164
f 141/200/125 48/201/48 165/202/149 289/203/257
f 289/203/257 165/202/149 49/195/49 143/194/127
f 139/204/123 47/205/47 166/206/150 288/207/256
f 288/207/256 166/206/150 48/201/48 141/200/125
f 137/208/121 46/209/46 167/210/151 287/211/255
f 287/211/255 167/210/151 47/205/47 139/204/123
f 135/212/119 45/213/45 168/214/152 286/215/254
f 286/215/254 168/214/152 46/209/46 137/208/121
f 133/216/117 44/217/44 169/218/153 285/219/253
f 285/219/253 169/218/153 45/213/45 135/212/119
f 131/220/115 43/221/43 170/222/154 284/223/252
f 284/223/252 170/222/154 44/217/44 133/216/117
f 129/224/113 42/225/42 171/226/155 283/227/251
f 283/227/251 171/226/155 43/221/43 131/220/115
f 127/228/111 41/229/41 172/230/156 282/231/250
f 282/231/250 172/230/156 42/225/42 129/224/113
f 125/232/109 40/233/40 173/234/157 281/235/249
f 281/235/249 173/234/157 41/229/41 127/228/111
f 123/236/107 39/237/39 174/238/158 280/239/248
f 280/239/248 174/238/158 40/233/40 125/232/109
f 121/240/105 38/241/38 175/242/159 279/243/247
f 279/243/247 175/242/159 39/237/39 123/236/107
f 119/244/103 37/245/37 176/246/160 278/247/246
f 278/247/246 176/246/160 38/241/38 121/240/105
f 117/248/101 36/249/36 177/250/161 277/251/245
f 277/251/245 177/250/161 37/245/37 119/244/103
f 115/252/99 35/253/35 178/254/162 276/255/244
f 276/255/244 178/254/162 36/249/36 117/248/101
f 180/256/164 34/257/34 179/258/163 275/259/243
f 275/259/243 179/258/163 35/253/35 115/252/99
f 98/260/1 196/261/1 418/262/386 355/263/323
f 357/264/325 115/265/99 276/255/244 389/266/357
f 182/267/1 99/268/1 358/269/326 390/270/358
f 359/271/327 117/272/101 277/273/245 391/274/359
f 183/275/1 100/276/1 360/277/328 392/278/360
f 361/279/329 119/244/103 278/247/246 393/280/361
f 184/281/1 101/282/1 362/283/330 394/284/362
f 363/285/331 121/240/105 279/286/247 395/287/363
f 185/288/1 102/289/1 364/290/332 396/291/364
f 365/292/333 123/236/107 280/239/248 397/293/365
f 186/294/1 103/295/1 366/296/334 398/297/366
f 367/298/335 125/232/109 281/299/249 399/300/367
f 187/301/1 104/302/1 368/303/336 400/304/368
f 369/305/337 127/228/111 282/231/250 401/306/369
f 188/307/1 105/308/1 370/309/338 402/310/370
f 371/311/339 129/224/113 283/312/251 403/313/371
f 189/314/1 106/315/1 372/316/340 404/317/372
f 373/318/341 131/319/115 284/223/252 405/320/373
f 190/321/1 107/322/1 374/323/342 406/324/374
f 375/325/343 133/326/117 285/327/253 407/328/375
f 191/329/1 108/330/1 376/331/344 408/332/376
f 377/333/345 135/212/119 286/215/254 409/334/377
f 192/335/1 109/336/1 378/337/346 410/338/378
f 379/339/347 137/208/121 287/340/255 411/341/379
f 193/342/1 110/343/1 380/344/348 412/345/380
f 381/346/349 139/347/123 288/207/256 413/348/381
f 194/349/1 111/350/1 382/351/350 414/352/382
f 383/353/351 141/200/125 289/203/257 415/354/383
f 195/355/1 112/356/1 384/357/352 416/358/384
f 385/359/353 143/194/127 290/197/258 417/360/385
f 196/261/1 113/361/1 386/362/354 418/262/386
f 356/363/324 180/256/164 275/364/243 387/365/355
f 417/360/385 290/197/258 180/199/164 356/366/324
f 387/367/355 275/364/243 115/265/99 357/264/325
f 100/276/1 182/267/1 390/270/358 360/277/328
f 389/266/357 276/255/244 117/272/101 359/271/327
f 101/282/1 183/275/1 392/368/360 362/283/330
f 391/274/359 277/273/245 119/244/103 361/279/329
f 102/289/1 184/281/1 394/284/362 364/290/332
f 393/369/361 278/247/246 121/240/105 363/370/331
f 103/295/1 185/288/1 396/371/364 366/372/334
f 395/287/363 279/286/247 123/236/107 365/292/333
f 104/302/1 186/294/1 398/373/366 368/303/336
f 397/374/365 280/239/248 125/232/109 367/375/335
f 105/308/1 187/301/1 400/376/368 370/309/338
f 399/300/367 281/299/249 127/228/111 369/305/337
f 106/315/1 188/307/1 402/377/370 372/316/340
f 401/378/369 282/231/250 129/224/113 371/379/339
f 107/322/1 189/314/1 404/380/372 374/381/342
f 403/382/371 283/312/251 131/319/115 373/318/341
f 108/330/1 190/321/1 406/383/374 376/331/344
f 405/320/373 284/223/252 133/326/117 375/384/343
f 109/336/1 191/329/1 408/332/376 378/337/346
f 407/328/375 285/327/253 135/212/119 377/333/345
f 110/343/1 192/335/1 410/338/378 380/344/348
f 409/385/377 286/215/254 137/208/121 379/386/347
f 111/350/1 193/342/1 412/345/380 382/387/350
f 411/388/379 287/340/255 139/347/123 381/346/349
f 112/356/1 194/349/1 414/352/382 384/357/352
f 413/348/381 288/207/256 141/200/125 383/353/351
f 113/361/1 195/355/1 416/389/384 386/362/354
f 415/354/383 289/203/257 143/194/127 385/359/353
f 99/268/1 181/390/1 388/391/356 358/392/326
f 257/393/225 94/394/94 209/192/177 274/152/242
f 96/395/96 257/393/225 274/152/242 162/396/146
f 256/397/224 93/398/93 208/190/176 273/165/241
f 95/399/95 256/397/224 273/165/241 161/60/145
f 255/400/223 92/401/92 207/188/175 272/402/240
f 94/394/94 255/400/223 272/402/240 209/192/177
f 254/403/222 91/404/91 206/185/174 271/405/239
f 93/398/93 254/403/222 271/405/239 208/190/176
f 253/406/221 90/407/90 205/182/173 270/187/238
f 92/401/92 253/406/221 270/187/238 207/188/175
f 252/408/220 89/409/89 204/410/172 269/186/237
f 97/411/97 252/408/220 269/186/237 163/184/147
f 251/412/219 97/411/97 163/184/147 268/413/236
f 91/404/91 251/412/219 268/413/236 206/185/174
f 250/414/218 88/415/88 203/416/171 267/417/235
f 90/407/90 250/414/218 267/417/235 205/182/173
f 249/418/217 87/419/87 202/420/170 266/421/234
f 89/409/89 249/418/217 266/421/234 204/410/172
f 248/422/216 86/423/86 201/174/169 265/177/233
f 88/415/88 248/422/216 265/177/233 203/416/171
f 247/424/215 85/425/85 200/172/168 264/175/232
f 87/419/87 247/424/215 264/175/232 202/420/170
f 246/426/214 84/427/84 199/170/167 263/173/231
f 86/423/86 246/426/214 263/173/231 201/174/169
f 245/428/213 83/429/83 198/149/166 262/171/230
f 85/425/85 245/428/213 262/171/230 200/172/168
f 244/430/212 82/431/82 197/432/165 261/169/229
f 84/427/84 244/430/212 261/169/229 199/170/167
f 243/433/211 96/395/96 162/396/146 260/167/228
f 83/429/83 243/433/211 260/167/228 198/149/166
f 242/434/210 95/399/95 161/60/145 258/435/226
f 82/431/82 242/434/210 258/435/226 197/432/165
f 241/436/209 66/437/66 50/438/50 210/439/178
f 81/440/81 241/436/209 210/439/178 65/441/65
f 240/442/208 81/440/81 65/441/65 211/443/179
f 80/444/80 240/442/208 211/443/179 64/445/64
f 239/446/207 80/444/80 64/445/64 212/447/180
f 79/448/79 239/446/207 212/447/180 63/449/63
f 238/450/206 79/448/79 63/449/63 213/451/181
f 78/452/78 238/450/206 213/451/181 62/453/62
f 237/454/205 78/452/78 62/453/62 214/455/182
f 77/456/77 237/454/205 214/455/182 61/457/61
f 236/458/204 77/456/77 61/457/61 215/459/183
f 76/460/76 236/458/204 215/459/183 60/461/60
f 235/462/203 76/460/76 60/461/60 216/463/184
f 75/464/75 235/462/203 216/463/184 59/465/59
f 234/466/202 75/464/75 59/465/59 217/467/185
f 74/468/74 234/466/202 217/467/185 58/469/58
f 233/470/201 74/468/74 58/469/58 218/471/186
f 73/472/73 233/470/201 218/471/186 57/473/57
f 232/474/200 73/472/73 57/473/57 219/475/187
f 72/476/72 232/474/200 219/475/187 56/477/56
f 231/478/199 72/476/72 56/477/56 220/479/188
f 71/480/71 231/478/199 220/479/188 55/481/55
f 230/482/198 71/480/71 55/481/55 221/483/189
f 70/484/70 230/482/198 221/483/189 54/485/54
f 229/486/197 70/484/70 54/485/54 222/487/190
f 69/488/69 229/486/197 222/487/190 53/489/53
f 228/490/196 69/488/69 53/489/53 223/491/191
f 68/492/68 228/490/196 223/491/191 52/493/52
f 227/494/195 68/492/68 52/493/52 224/495/192
f 67/496/67 227/494/195 224/495/192 51/497/51
f 226/498/194 67/496/67 51/497/51 225/499/193
f 66/437/66 226/498/194 225/499/193 50/438/50
f 292/500/260 354/501/322 252/408/220 97/411/97
f 326/502/294 293/503/261 91/404/91 254/403/222
f 323/504/291 294/505/262 67/506/67 226/507/194
f 328/508/296 295/509/263 93/510/93 256/397/224
f 325/511/293 296/512/264 68/513/68 227/514/195
f 330/515/298 297/516/265 95/399/95 242/434/210
f 327/517/295 298/518/266 69/519/69 228/520/196
f 332/521/300 299/522/267 82/431/82 244/430/212
f 329/523/297 300/524/268 70/525/70 229/526/197
f 334/527/302 301/528/269 84/529/84 246/426/214
f 331/530/299 302/531/270 71/532/71 230/533/198
f 336/534/304 303/535/271 86/423/86 248/422/216
f 333/536/301 304/537/272 72/538/72 231/539/199
f 338/540/306 305/541/273 88/415/88 250/414/218
f 335/542/303 306/543/274 73/544/73 232/545/200
f 340/546/308 307/547/275 90/407/90 253/406/221
f 337/548/305 308/549/276 74/550/74 233/551/201
f 342/552/310 309/553/277 92/401/92 255/400/223
f 339/554/307 310/555/278 75/556/75 234/557/202
f 344/558/312 311/559/279 94/394/94 257/393/225
f 341/560/309 312/561/280 76/562/76 235/563/203
f 346/564/314 313/565/281 96/395/96 243/433/211
f 343/566/311 314/567/282 77/568/77 236/569/204
f 348/570/316 315/571/283 83/429/83 245/428/213
f 345/572/313 316/573/284 78/574/78 237/575/205
f 350/576/318 317/577/285 85/425/85 247/424/215
f 347/578/315 318/579/286 79/580/79 238/581/206
f 352/582/320 319/583/287 87/419/87 249/418/217
f 349/584/317 320/585/288 80/586/80 239/587/207
f 354/588/322 321/589/289 89/409/89 252/408/220
f 351/590/319 322/591/290 81/592/81 240/593/208
f 293/503/261 324/594/292 251/412/219 91/404/91
f 300/595/268 331/596/299 230/533/198 70/525/70
f 299/597/267 330/598/298 242/434/210 82/431/82
f 316/599/284 347/600/315 238/581/206 78/574/78
f 315/571/283 346/564/314 243/433/211 83/429/83
f 302/531/270 333/601/301 231/539/199 71/532/71
f 301/602/269 332/521/300 244/430/212 84/529/84
f 318/603/286 349/604/317 239/587/207 79/580/79
f 317/605/285 348/570/316 245/428/213 85/425/85
f 304/606/272 335/607/303 232/545/200 72/538/72
f 303/608/271 334/527/302 246/426/214 86/423/86
f 320/609/288 351/590/319 240/593/208 80/586/80
f 319/583/287 350/610/318 247/424/215 87/419/87
f 306/543/274 337/611/305 233/551/201 73/544/73
f 305/612/273 336/613/304 248/422/216 88/415/88
f 322/591/290 353/614/321 241/615/209 81/592/81
f 321/589/289 352/616/320 249/418/217 89/409/89
f 308/617/276 339/618/307 234/557/202 74/550/74
f 307/547/275 338/540/306 250/414/218 90/407/90
f 294/619/262 325/511/293 227/514/195 67/506/67
f 291/620/259 323/504/291 226/507/194 66/621/66
f 353/614/321 291/622/259 66/621/66 241/615/209
f 310/623/278 341/560/309 235/563/203 75/556/75
f 309/624/277 340/546/308 253/406/221 92/401/92
f 296/625/264 327/626/295 228/520/196 68/513/68
f 295/627/263 326/628/294 254/403/222 93/510/93
f 312/629/280 343/566/311 236/569/204 76/562/76
f 311/630/279 342/631/310 255/400/223 94/394/94
f 298/518/266 329/632/297 229/526/197 69/519/69
f 297/633/265 328/634/296 256/397/224 95/399/95
f 314/635/282 345/572/313 237/575/205 77/568/77
f 313/636/281 344/637/312 257/393/225 96/395/96
f 1/638/1 98/639/1 181/640/1 99/641/1
f 1/642/1 99/641/1 182/643/1 100/644/1
f 1/645/1 100/644/1 183/646/1 101/647/1
f 1/648/1 101/649/1 184/650/1 102/651/1
f 1/652/1 102/653/1 185/654/1 103/655/1
f 1/656/1 103/657/1 186/658/1 104/659/1
f 1/660/1 104/659/1 187/661/1 105/662/1
f 1/663/1 105/662/1 188/664/1 106/665/1
f 1/666/1 106/667/1 189/668/1 107/669/1
f 1/670/1 107/669/1 190/671/1 108/672/1
f 1/673/1 108/674/1 191/675/1 109/676/1
f 1/677/1 109/678/1 192/679/1 110/680/1
f 1/681/1 110/682/1 193/683/1 111/684/1
f 1/685/1 111/684/1 194/686/1 112/687/1
f 1/688/1 112/687/1 195/689/1 113/690/1
f 1/691/1 113/690/1 196/692/1 98/639/1
f 294/505/262 323/504/291 324/594/292 293/503/261
f 323/504/291 291/620/259 292/693/260 324/594/292
f 296/512/264 325/511/293 326/628/294 295/627/263
f 325/511/293 294/619/262 293/503/261 326/502/294
f 298/518/266 327/517/295 328/634/296 297/633/265
f 327/626/295 296/625/264 295/509/263 328/508/296
f 300/524/268 329/523/297 330/598/298 299/597/267
f 329/632/297 298/518/266 297/516/265 330/515/298
f 302/531/270 331/530/299 332/521/300 301/602/269
f 331/596/299 300/595/268 299/522/267 332/521/300
f 304/537/272 333/536/301 334/527/302 303/608/271
f 333/601/301 302/531/270 301/528/269 334/527/302
f 306/543/274 335/542/303 336/613/304 305/612/273
f 335/607/303 304/606/272 303/535/271 336/534/304
f 308/549/276 337/548/305 338/540/306 307/547/275
f 337/611/305 306/543/274 305/541/273 338/540/306
f 310/555/278 339/554/307 340/546/308 309/624/277
f 339/618/307 308/617/276 307/547/275 340/546/308
f 312/561/280 341/560/309 342/631/310 311/630/279
f 341/560/309 310/623/278 309/553/277 342/552/310
f 314/567/282 343/566/311 344/637/312 313/636/281
f 343/566/311 312/629/280 311/559/279 344/558/312
f 316/573/284 345/572/313 346/564/314 315/571/283
f 345/572/313 314/635/282 313/565/281 346/564/314
f 318/579/286 347/578/315 348/570/316 317/605/285
f 347/600/315 316/599/284 315/571/283 348/570/316
f 320/585/288 349/584/317 350/610/318 319/583/287
f 349/604/317 318/603/286 317/577/285 350/576/318
f 322/591/290 351/590/319 352/616/320 321/589/289
f 351/590/319 320/609/288 319/583/287 352/582/320
f 291/622/259 353/614/321 354/501/322 292/500/260
f 353/614/321 322/591/290 321/589/289 354/588/322
f 324/594/292 292/693/260 97/411/97 251/412/219
f 356/694/324 387/695/355 388/696/356 355/263/323
f 387/695/355 357/697/325 358/392/326 388/391/356
f 357/697/325 389/698/357 390/270/358 358/269/326
f 389/698/357 359/699/327 360/277/328 390/270/358
f 359/699/327 391/700/359 392/278/360 360/277/328
f 391/700/359 361/701/329 362/283/330 392/368/360
f 361/701/329 393/702/361 394/284/362 362/283/330
f 393/702/361 363/703/331 364/290/332 394/284/362
f 363/703/331 395/704/363 396/291/364 364/290/332
f 395/704/363 365/705/333 366/372/334 396/371/364
f 365/705/333 397/706/365 398/297/366 366/296/334
f 397/706/365 367/707/335 368/303/336 398/373/366
f 367/707/335 399/708/367 400/304/368 368/303/336
f 399/708/367 369/709/337 370/309/338 400/376/368
f 369/709/337 401/710/369 402/310/370 370/309/338
f 401/710/369 371/711/339 372/316/340 402/377/370
f 371/711/339 403/712/371 404/317/372 372/316/340
f 403/712/371 373/713/341 374/381/342 404/380/372
f 373/713/341 405/714/373 406/324/374 374/323/342
f 405/714/373 375/715/343 376/331/344 406/383/374
f 375/715/343 407/716/375 408/332/376 376/331/344
f 407/716/375 377/717/345 378/337/346 408/332/376
f 377/717/345 409/718/377 410/338/378 378/337/346
f 409/718/377 379/719/347 380/344/348 410/338/378
f 379/719/347 411/720/379 412/345/380 380/344/348
f 411/720/379 381/721/349 382/387/350 412/345/380
f 381/721/349 413/722/381 414/352/382 382/351/350
f 413/722/381 383/723/351 384/357/352 414/352/382
f 383/723/351 415/724/383 416/358/384 384/357/352
f 415/724/383 385/725/353 386/362/354 416/389/384
f 385/725/353 417/726/385 418/262/386 386/362/354
f 417/726/385 356/694/324 355/263/323 418/262/386
f 181/390/1 98/260/1 355/263/323 388/696/356
